<svg width="1174" height="1174" viewBox="0 0 1174 1174" fill="none" xmlns="http://www.w3.org/2000/svg">
<path d="M322.016 366.208C321.871 366.095 321.71 365.966 321.565 365.854H321.549C321.581 366.159 321.629 366.53 321.678 366.852C321.645 366.53 321.613 366.192 321.581 365.87C321.71 365.982 321.871 366.095 322.016 366.208Z" fill="#231F20"/>
<path d="M1087 461.943L1083.91 461.911L1083.84 461.669L1082.86 461.911H1082.32L1021.92 461.347L961.499 460.977L901.083 460.687L842.131 460.558L842.164 459.271L813.46 455.729L931.428 287.777C941.087 281.724 950.681 275.542 960.292 269.425L988.029 251.476C980.688 267.783 973.573 284.187 966.328 300.543C958.585 318.009 951.051 335.556 943.453 353.103L932.071 379.424L920.883 405.825C913.414 423.404 906.041 441.031 898.797 458.723C906.83 441.385 914.782 424 922.59 406.565L934.341 380.422L945.9 354.182C953.611 336.699 961.354 319.217 968.888 301.67C976.422 284.107 984.133 266.64 991.554 249.013L992.987 245.6L989.944 247.661L959.535 268.282C950.246 274.689 940.893 281.048 931.621 287.52L947.542 264.853L946.753 264.306L948.363 263.05L950.423 261.457H947.816L779.332 261.746L721.476 88.2729L720.8 86.2285L719.206 87.6773L690.809 113.966C691.244 110.295 691.549 106.593 691.952 102.922C692.306 98.8977 692.628 94.9054 692.902 90.8808L693.175 86.9046L690.825 90.2047C687.283 95.1629 683.79 100.153 680.393 105.176C676.948 110.182 673.616 115.269 670.252 120.34C666.935 125.444 663.651 130.563 660.432 135.714C657.437 140.527 654.524 145.405 651.674 150.315L642.096 159.233L602.43 196.114C601.126 191.848 599.774 187.615 598.422 183.349C596.925 178.648 595.443 173.947 593.882 169.295C590.775 159.958 587.781 150.573 584.561 141.268L574.967 113.338C571.763 104.033 568.399 94.7927 565.115 85.504L564.857 84.7796L564.117 84.6508L547.568 81.5117L530.987 78.5336C525.449 77.5194 519.911 76.5374 514.373 75.6198C508.868 74.6861 503.362 73.7524 497.824 72.8992L490.79 56.7045L489.63 54L488.278 56.624C479.344 73.7202 470.586 90.8808 461.781 108.025L435.412 159.491L430.067 170.051L397.05 142.958L362.326 114.738L360.604 113.338L360.733 115.575C361.763 132.253 362.729 148.947 363.856 165.624L367.059 214.257L340.336 215.722L338.437 215.818L339.065 217.621L351.444 254.068L314.644 256.064L313.05 256.144L313.501 257.657C318.942 276.541 324.592 295.359 330.13 314.21L338.517 342.462L346.92 370.393L330.903 372.824C327.86 370.538 324.882 368.284 322.049 366.159C324.769 368.3 327.635 370.554 330.597 372.872L329.615 373.017L330.629 372.888C361.2 396.922 402.99 429.924 431.516 451.962C403.039 459.399 364.001 469.783 335.507 477.51C333.398 459.319 331.016 441.144 328.73 422.824C327.715 415.049 326.186 402.959 324.737 391.272L326.073 389.549L324.351 388.213C323.337 380.116 322.387 372.453 321.695 366.787C322.387 373.371 323.095 380.438 323.836 387.827L247.241 328.393L338.871 351.944L339.596 349.127L236.858 322.71L292.332 390.58L87.982 352.588L192.056 406.742L93.89 474.338L202.907 568.931L159.071 572.682L158.524 572.73L87 646.46L188.402 688.105L161.051 731.796C151.956 746.252 142.973 760.756 134.007 775.261L133.298 775.647L133.524 776.05C133.443 776.194 133.347 776.323 133.266 776.468L132.348 777.917L134.071 777.836L134.489 777.82L134.699 778.207L135.488 777.772L182.172 775.567L190.27 775.164L191.879 820.657C192.411 836.015 193.022 851.389 193.65 866.746L193.731 868.549L195.131 867.39L237.662 832.296L277.715 798.989L275.348 851.663L273.03 907.378V907.942L273.416 908.344L308.865 945.225L344.457 981.977L348.434 986.082L346.421 982.041L431.226 885.678L452.476 861.515L463.101 849.441L468.429 843.404L471.085 840.394C471.649 839.83 472.309 839.267 472.969 838.704C474.369 838.848 476.285 838.848 477.219 839.943C478.265 840.78 478.748 843.388 479.167 844.579L485.525 865.314C501.865 918.759 545.298 1058.78 562.475 1114.08L564.084 1119.26L565.211 1113.93C576.045 1062.84 589.423 1000.22 602.462 938.689L604.104 939.526L639.955 868.968L674.839 895.272L711.286 922.333L713.716 924.136L713.33 921.142C711.527 907.442 709.45 893.824 707.487 880.14C706.521 873.331 705.49 866.489 704.412 859.663L701.466 840.893L811.126 890.475L811.175 890.378L811.207 890.411H811.738L889.154 890.878L966.57 890.958H969.194L967.584 888.914L927.049 838.011L906.669 812.641L886.514 787.721L906.202 726.322L887.351 706.248L939.155 688.427L988.689 671.299L991.441 670.929L991.361 670.365L991.538 670.301L992.198 670.076L992.101 669.383L980.704 577.189L980.672 576.851L980.479 576.578L954.641 541.822L1018.24 503.573L1081.69 465.162L1084.54 464.502L1084.31 463.569L1087 461.943ZM842.147 460.574L901.099 461.75L961.499 462.796L1021.9 463.762L1072.58 464.406L840.731 520.959L842.147 460.574ZM839.218 461.83L836.61 572.183L721.653 537.91L723.15 447.519L839.218 461.83ZM722.055 719.964L726.482 694.496L841.938 809.952L722.055 719.964ZM863.896 830.075L687.348 787.189L721.057 722.845L863.896 830.075ZM719.625 716.937L649.163 673.36L734.531 629.235L734.725 629.927L719.625 716.937ZM721.106 572.972L721.073 572.859L721.605 540.936L834.147 574.485L736.35 625.033L721.106 572.972ZM435.847 452.01L449.321 432.193L474.16 490.388L436.587 453.491C436.877 453.411 437.183 453.33 437.456 453.25C436.925 452.847 436.378 452.413 435.847 452.01ZM452.428 432.049L562.072 510.092L510.574 568.239L452.428 432.049ZM452.379 428.443L565.952 396.584L562.861 507.066L452.379 428.443ZM568.882 395.957L721.347 379.665L718.192 570.895L565.726 508.869L568.882 395.957ZM813.477 455.713L723.198 444.573L723.295 438.423L835.241 351.397L941.73 268.202L813.477 455.713ZM779.51 263.984L945.143 263.227L945.014 263.421L834.501 350.447L723.279 438.407L724.309 376.413L688.603 380.229L779.51 263.984ZM719.528 91.2189L777.159 262.278L688.571 380.245L627.849 386.732L711.237 113.402L710.094 113.048L719.077 91.6213L719.528 91.2189ZM662.025 136.793C665.599 131.867 669.092 126.892 672.554 121.902C675.999 116.895 679.427 111.857 682.776 106.786C685.432 102.81 688.024 98.8011 690.6 94.7766C690.567 97.4811 690.519 100.186 690.519 102.874C690.567 106.609 690.551 110.343 690.68 114.094L680.603 123.431L652.334 149.736C655.618 145.453 658.854 141.139 662.025 136.793ZM643.915 161.262L682.551 125.54L719.045 91.6696L709.885 113L708.452 112.565L704.476 125.604L658.967 231.562L599.71 370.473L568.753 230.741L643.915 161.262ZM596.86 371.085L519.058 301.799L566.306 233.237L596.86 371.085ZM342.445 218.507L368.669 216.945L370.07 216.865L369.973 215.464L366.431 165.447C365.337 149.51 364.081 133.573 362.89 117.652L396.326 143.908L430.035 170.116L409.269 211.118C400.769 228.053 392.237 245.004 383.85 261.988L372.855 250.542L342.832 219.634L342.445 218.507ZM330.919 372.904L347.291 370.924L347.597 370.892L347.516 370.586L339.725 342.157L331.837 313.759C326.685 295.343 321.598 276.911 316.366 258.527L353.36 256.675L355.147 256.579L354.583 254.889L342.88 219.859L371.873 251.476L403.522 285.604C424.594 308.383 445.94 330.888 467.141 353.554L470.039 356.645L469.604 352.427C467.834 335.218 465.853 318.009 463.986 300.8L458.271 249.174L452.331 197.595C450.254 180.403 448.258 163.194 446.085 146.033C447.598 163.274 449.272 180.499 450.882 197.756L455.985 249.431L461.33 301.09C462.988 316.899 464.582 332.739 466.32 348.548C445.908 327.073 425.608 305.501 405.067 284.139L383.85 262.036C392.848 245.342 401.686 228.568 410.589 211.826L437.505 160.634L464.163 109.297C472.583 93.0541 481.034 76.8111 489.373 60.5197L507.403 101.441C513.778 115.962 520.217 130.482 526.704 144.971L546.151 188.436L565.211 230.452L547.31 187.969L528.588 144.182C522.358 129.581 516.08 114.996 509.737 100.443L497.792 72.9636C503.233 74.2836 508.691 75.491 514.132 76.7306C519.605 78.0184 525.079 79.1775 530.584 80.3687L547.052 83.9264L562.813 87.1461C565.952 96.2093 569.01 105.305 572.198 114.352L582.098 142.169C585.382 151.458 588.875 160.666 592.256 169.907C593.946 174.527 595.717 179.131 597.456 183.735C599.049 187.92 600.643 192.09 602.285 196.259L565.276 230.661L565.195 230.468L565.276 230.661L564.986 230.918L564.889 231.015L564.809 231.128L516.675 301.38L516.128 302.169L516.852 302.797L517.126 303.038C515.13 307.771 513.279 312.536 511.363 317.285C509.367 322.404 507.387 327.539 505.455 332.691C501.64 342.865 497.937 353.103 494.331 363.374C491.063 366.803 487.747 370.2 484.511 373.661C481.163 377.202 477.847 380.712 474.563 384.285C471.262 387.843 467.995 391.433 464.759 395.023C461.539 398.661 458.271 402.251 455.132 405.937C458.722 402.669 462.199 399.273 465.741 395.957C469.234 392.592 472.711 389.211 476.156 385.799C479.617 382.402 483.03 378.957 486.443 375.528C489.856 372.115 493.22 368.622 496.617 365.161L496.826 364.952L496.939 364.646C500.625 354.295 504.215 343.911 507.676 333.48C509.399 328.28 511.121 323.048 512.763 317.8C514.261 312.906 515.79 308.061 517.223 303.151L597.472 374.208L597.568 374.659L597.89 374.594L598.389 375.029L599.355 375.898L599.838 374.691L600.096 374.095L600.418 374.031L600.321 373.58L660.094 232.094L703.446 128.792L624.629 387.103L567.24 393.236L446.986 426.945L447.888 429.054L433.448 450.272C403.892 427.541 362.31 396.52 330.919 372.904ZM106.672 359.027L323.691 399.434L324.222 396.568L294.73 391.079L295.745 390.242L250.026 334.301L324.206 391.868C327.023 420.055 330.114 451.914 332.867 476.721L332.802 476.689V476.222L331.885 476.206L106.672 359.027ZM194.326 408.706L193.489 407.483L325.413 476.125L100.844 473.067L194.326 408.706ZM100.233 475.98L331.176 479.119L333.269 480.214L333.334 480.762L333.881 480.617L418.589 550.483L406.902 551.481L406.854 551.304L405.968 551.561L206.963 568.577L100.233 475.98ZM159.876 575.531L205.981 571.587L206.48 572.022L206.931 571.507L392.06 555.682L93.4714 643.98L159.876 575.531ZM93.7451 646.073L431.371 597.183L99.7336 643.739L406.5 554.443L422.389 553.09L422.26 551.642L423.193 550.515L337.342 479.715C366.206 472.165 404.52 462.152 433.319 454.361L476.961 497.214L477.042 497.133L509.689 573.599L564.455 511.783L565.614 512.604L565.63 511.976L713.137 571.99L625.306 577.205L718.514 574.533L733.694 626.385L645.621 671.911L566.161 701.515L558.611 642.322L563.44 702.545L396.76 778.142L507.982 641.646L400.769 768.999L508.803 575.692L428.28 614.038L428.039 613.555L239.514 705.926L93.7451 646.073ZM397.775 814.476L349.77 859.229L302.86 903.305C306.997 881.138 311.038 858.955 315.078 836.772L327.715 767.485L408.85 693.531L389.709 784.517L422.131 769.82L397.404 814.283L397.775 814.476ZM427.83 617.467L501.801 582.244L395.07 773.216L427.83 617.467ZM399.996 815.619L422.244 769.771L548.324 712.591C546.087 719.046 543.946 725.518 541.772 731.989L534.898 753.078C532.612 760.112 530.327 767.131 528.153 774.214L521.762 794.691C513.134 797.589 504.505 800.599 495.909 803.626L469.443 812.914L443.075 822.477C434.559 825.648 426.043 828.771 417.591 832.039C413.696 828.465 399.449 815.587 398.756 814.975L399.996 815.619ZM161.969 732.327L188.434 688.105L239.015 708.872L239.626 709.13L398.805 631.134L137.162 773.538C145.452 759.823 153.759 746.107 161.969 732.327ZM182.092 773.216L139.206 775.728L403.972 628.591L424.658 618.449L408.882 693.466L325.751 765.36L230.177 770.56L182.092 773.216ZM310.635 943.535L275.767 906.895L278.262 851.727L280.58 796.011L280.709 792.936L278.359 794.9L236.101 830.349L195.373 864.799C194.6 850.053 193.827 835.307 192.942 820.561L190.318 775.148L230.289 773.136L324.657 768.274L312.503 836.289C308.349 859.551 304.196 882.829 300.155 906.106L299.592 909.326L301.942 907.072L306.401 902.774L325.156 941.893C330.677 953.483 336.263 965.042 341.882 976.584L310.635 943.535ZM470.506 839.846L467.801 842.841L462.425 848.829L451.671 860.79L430.148 884.696L345.053 979.224C338.759 966.619 332.432 954.031 326.025 941.474L306.401 902.79L350.671 860.194L397.775 814.492L398.724 814.991L417.189 832.2C417.044 832.248 416.915 832.313 416.77 832.361C416.915 832.313 417.06 832.264 417.221 832.216L418.396 833.311C418.428 833.407 461.7 837.561 461.7 837.561L471.955 838.559C471.488 838.945 471.005 839.363 470.506 839.846ZM473.226 837.496C473.017 837.48 472.824 837.464 472.631 837.448C465.29 836.868 426.848 833.617 418.557 832.956C418.622 832.989 418.267 832.667 417.623 832.071C426.3 829.431 434.913 826.662 443.558 823.925L470.216 815.2L496.778 806.201C504.489 803.593 512.184 800.969 519.863 798.281L473.597 837.158C473.468 837.287 473.355 837.383 473.226 837.496ZM703.462 859.792C704.202 866.65 704.975 873.508 705.812 880.366C707.342 893.083 708.79 905.784 710.432 918.47L676.578 892.954L641.999 867.326L701.257 840.796L701.401 840.861L703.462 859.792ZM701.273 837.609L640.872 864.654C641.516 859.132 642.096 853.594 642.708 848.057L644.784 829.045C645.509 822.718 646.104 816.359 646.748 810.017L648.616 790.989H648.551L645.798 809.92C644.913 816.231 643.979 822.525 643.142 828.851L640.599 847.799C639.794 853.868 638.941 859.937 638.184 866.038L603.348 934.6C614.166 883.585 624.71 833.52 633.338 791.649C633.226 791.455 590.002 710.273 583.869 698.714C589.793 710.273 631.069 790.441 631.857 791.6C611.88 883.456 583.692 1013.34 563.601 1108.01C542.32 1040.2 500.529 907.024 480.438 844.112C479.875 842.535 479.473 840.104 478.088 838.961C477.122 837.963 475.657 837.673 474.241 837.544L519.959 798.233C521.07 797.846 522.181 797.46 523.292 797.074L523.968 796.848L524.161 796.188L530.552 774.955C532.709 767.888 534.77 760.805 536.798 753.689L542.915 732.391C544.734 725.775 546.618 719.175 548.389 712.542L564.712 705.137L583.515 698.135C583.611 698.296 583.708 698.505 583.821 698.714C583.708 698.489 583.611 698.296 583.515 698.119L646.008 674.841L719.158 720.092L683.001 789.121L721.572 798.49L742.693 820.368L765.359 843.662L805.733 884.841L701.273 837.609ZM905.96 813.236L925.777 839.026L964.042 888.415L889.218 887.964L812.35 887.883L812.382 887.819L812.124 887.706L766.583 842.503L743.418 819.724L721.766 798.539L870.142 834.582L871.462 834.904L886.578 787.753L905.96 813.236ZM902.918 727.063L869.659 830.767L858.455 822.348L727.078 690.971L737.654 630.072L737.719 629.734L737.171 627.85L766.583 612.654L766.567 612.686L816.117 634.66L902.918 727.063ZM1016.75 501.093L951.985 540.309L950.729 541.065L951.599 542.256L976.76 575.853L841.922 574.002L978.386 578.767L990.218 668.192L870.867 686.898L980.801 672.345L938.865 687.526L887.383 706.248L818.081 632.486L817.871 632.277L769.899 610.995L839.475 575.032L840.747 520.991L1073.32 467.126L1016.75 501.093Z" fill="#231F20"/>
<path d="M645.701 670.688L595.99 616.195L643.512 672.603L645.701 670.688Z" fill="#231F20"/>
</svg>
