<svg xmlns="http://www.w3.org/2000/svg" xmlns:xlink="http://www.w3.org/1999/xlink" width="1080" zoomAndPan="magnify" viewBox="0 0 810 809.999993" height="1080" preserveAspectRatio="xMidYMid meet" version="1.0"><path fill="#ffffff" d="M 466.554688 381.03125 C 459.695312 395.816406 440.53125 400.546875 426.21875 395.105469 C 418.769531 392.265625 413.089844 387.0625 409.542969 379.851562 C 408.003906 376.183594 406.703125 372.519531 406.941406 368.617188 L 426.457031 368.617188 C 426.457031 373.226562 429.886719 377.128906 434.027344 378.667969 C 439.941406 381.03125 447.15625 378.667969 450.230469 372.871094 C 451.886719 369.796875 451.414062 366.011719 449.402344 363.175781 C 446.210938 358.089844 439.824219 357.5 434.382812 357.027344 C 428.230469 356.433594 421.726562 354.1875 416.285156 350.402344 C 405.640625 342.835938 403.628906 327.460938 408.953125 316.34375 C 415.8125 301.5625 434.972656 296.832031 449.285156 302.273438 C 456.738281 304.992188 462.296875 310.195312 465.960938 317.527344 C 467.5 320.71875 468.800781 324.742188 468.445312 328.761719 L 449.046875 328.761719 C 449.046875 324.03125 445.617188 320.128906 441.242188 318.710938 C 436.867188 316.9375 431.425781 317.644531 427.875 320.957031 C 423.972656 324.386719 423.144531 329.945312 425.984375 334.320312 C 429.175781 339.285156 435.566406 339.996094 440.886719 340.351562 C 447.273438 340.941406 453.660156 343.191406 459.101562 346.972656 C 469.867188 354.425781 471.875 369.917969 466.554688 381.03125 Z M 466.554688 381.03125 " fill-opacity="1" fill-rule="nonzero"/><path fill="#ffffff" d="M 548.757812 318.945312 L 523.445312 318.945312 L 523.445312 395.339844 L 506.414062 395.339844 L 506.414062 318.945312 L 481.222656 318.945312 L 481.222656 302.152344 L 548.757812 302.152344 Z M 548.757812 318.945312 " fill-opacity="1" fill-rule="nonzero"/><path fill="#ffffff" d="M 596.070312 302.035156 L 550.296875 395.460938 L 568.273438 395.460938 L 596.070312 338.695312 L 623.75 395.460938 L 641.726562 395.460938 Z M 596.070312 302.035156 " fill-opacity="1" fill-rule="nonzero"/><path fill="#ffffff" d="M 725.824219 395.222656 L 704.890625 395.222656 L 688.332031 370.980469 L 683.125 363.648438 L 683.007812 363.410156 L 670.46875 363.410156 L 670.46875 395.339844 L 653.554688 395.339844 L 653.554688 301.679688 L 687.738281 301.679688 C 704.769531 301.679688 718.726562 315.636719 718.726562 332.664062 C 718.726562 344.84375 711.75 355.253906 701.460938 360.335938 L 701.578125 360.335938 Z M 701.460938 332.664062 C 701.460938 325.332031 695.78125 319.300781 688.683594 318.945312 C 688.449219 318.945312 670.46875 318.945312 670.46875 318.945312 L 670.46875 346.5 C 670.46875 346.5 688.449219 346.5 688.683594 346.5 C 695.78125 345.910156 701.460938 339.878906 701.460938 332.664062 Z M 701.460938 332.664062 " fill-opacity="1" fill-rule="nonzero"/><path fill="#ffffff" d="M 804.246094 318.945312 L 778.933594 318.945312 L 778.933594 395.339844 L 761.902344 395.339844 L 761.902344 318.945312 L 736.707031 318.945312 L 736.707031 302.152344 L 804.246094 302.152344 Z M 804.246094 318.945312 " fill-opacity="1" fill-rule="nonzero"/><path fill="#ffffff" d="M 471.640625 499.292969 L 460.285156 499.292969 L 456.5 495.035156 C 451.53125 498.699219 445.261719 500.710938 438.757812 500.710938 C 421.253906 500.710938 407.058594 485.929688 407.058594 467.835938 C 407.058594 449.859375 421.132812 435.078125 438.757812 435.078125 C 456.261719 435.078125 470.457031 449.859375 470.457031 467.835938 C 470.457031 475.875 467.617188 483.445312 462.886719 489.121094 Z M 456.617188 482.144531 C 459.695312 478.242188 461.703125 473.394531 461.703125 467.953125 C 461.703125 455.417969 451.414062 445.246094 438.875 445.246094 C 426.339844 445.246094 416.167969 455.417969 416.167969 467.953125 C 416.167969 480.488281 426.339844 490.777344 438.875 490.777344 C 443.015625 490.777344 446.800781 489.710938 450.230469 487.703125 L 441.359375 477.53125 L 447.867188 471.972656 Z M 456.617188 482.144531 " fill-opacity="1" fill-rule="nonzero"/><path fill="#ffffff" d="M 506.886719 500.59375 C 493.875 500.59375 483.230469 489.949219 483.113281 476.820312 L 483.113281 436.378906 L 491.628906 436.378906 L 491.628906 476.941406 C 491.628906 485.335938 498.488281 492.195312 506.886719 492.195312 C 515.402344 492.195312 522.265625 485.335938 522.144531 476.941406 L 522.144531 436.496094 L 530.664062 436.496094 L 530.664062 476.941406 C 530.664062 489.949219 520.015625 500.59375 506.886719 500.59375 Z M 506.886719 500.59375 " fill-opacity="1" fill-rule="nonzero"/><path fill="#ffffff" d="M 545.328125 436.378906 L 553.84375 436.378906 L 553.84375 499.054688 L 545.328125 499.054688 Z M 545.328125 436.378906 " fill-opacity="1" fill-rule="nonzero"/><path fill="#ffffff" d="M 581.878906 499.054688 L 581.878906 445.011719 L 564.136719 445.011719 L 564.136719 436.378906 L 608.253906 436.378906 L 608.253906 445.011719 L 590.394531 445.011719 L 590.394531 499.054688 Z M 581.878906 499.054688 " fill-opacity="1" fill-rule="nonzero"/><path fill="#ffffff" d="M 677.449219 467.835938 C 677.449219 485.808594 663.371094 500.472656 645.75 500.472656 C 628.242188 500.472656 614.050781 485.808594 614.050781 467.835938 C 614.050781 449.621094 628.125 434.957031 645.75 434.957031 C 663.253906 434.957031 677.449219 449.621094 677.449219 467.835938 Z M 668.339844 467.835938 C 668.339844 455.300781 658.167969 445.011719 645.628906 445.011719 C 633.09375 445.011719 623.039062 455.179688 623.039062 467.835938 C 623.039062 480.25 633.09375 490.421875 645.628906 490.421875 C 658.167969 490.421875 668.339844 480.25 668.339844 467.835938 Z M 668.339844 467.835938 " fill-opacity="1" fill-rule="nonzero"/><path fill="#ffffff" d="M 122.121094 281.457031 C 56.710938 281.457031 3.605469 334.4375 3.605469 399.953125 C 3.605469 465.46875 56.710938 518.332031 122.121094 518.332031 C 187.53125 518.332031 240.636719 465.234375 240.636719 399.835938 C 240.636719 334.4375 187.53125 281.457031 122.121094 281.457031 Z M 167.894531 453.761719 L 122.121094 355.253906 L 76.347656 453.761719 L 56.355469 453.761719 L 122.003906 312.441406 L 187.648438 453.761719 Z M 167.894531 453.761719 " fill-opacity="1" fill-rule="nonzero"/><path fill="#ffffff" d="M 323.199219 218.664062 L 331.714844 218.664062 L 331.714844 583.726562 L 323.199219 583.726562 Z M 323.199219 218.664062 " fill-opacity="1" fill-rule="nonzero"/></svg>