<svg width="416" height="123" viewBox="0 0 416 123" fill="none" xmlns="http://www.w3.org/2000/svg">
<path d="M58.6927 1.688H78.2128C80.4314 1.688 82.6288 1.92267 84.8048 2.392C87.0234 2.81866 88.9861 3.608 90.6928 4.76C92.4421 5.86933 93.8501 7.384 94.9168 9.304C95.9834 11.1813 96.5168 13.5493 96.5168 16.408C96.5168 19.1813 95.8341 21.6347 94.4688 23.768C93.1034 25.8587 91.1408 27.48 88.5808 28.632L100.101 47H82.5648L73.8608 30.808H73.4128V47H58.6927V1.688ZM73.2847 20.824H76.2928C76.8048 20.824 77.3594 20.7813 77.9568 20.696C78.5968 20.6107 79.1728 20.44 79.6848 20.184C80.2394 19.8853 80.6874 19.5013 81.0288 19.032C81.4128 18.52 81.6048 17.8587 81.6048 17.048C81.6048 16.2373 81.4554 15.5973 81.1568 15.128C80.8581 14.6587 80.4741 14.3173 80.0048 14.104C79.5354 13.848 79.0234 13.6987 78.4688 13.656C77.9141 13.5707 77.4021 13.528 76.9328 13.528H73.2847V20.824ZM102.332 24.088C102.332 20.4613 102.972 17.1973 104.252 14.296C105.532 11.352 107.282 8.856 109.5 6.808C111.762 4.76 114.428 3.18133 117.5 2.072C120.572 0.962664 123.9 0.407997 127.484 0.407997C131.068 0.407997 134.396 0.962664 137.468 2.072C140.54 3.18133 143.207 4.76 145.468 6.808C147.73 8.856 149.5 11.352 150.78 14.296C152.06 17.1973 152.7 20.4613 152.7 24.088C152.7 27.7147 152.06 31.0213 150.78 34.008C149.5 36.9947 147.73 39.5547 145.468 41.688C143.207 43.7787 140.54 45.4 137.468 46.552C134.396 47.704 131.068 48.28 127.484 48.28C123.9 48.28 120.572 47.704 117.5 46.552C114.428 45.4 111.762 43.7787 109.5 41.688C107.282 39.5547 105.532 36.9947 104.252 34.008C102.972 31.0213 102.332 27.7147 102.332 24.088ZM118.524 24.088C118.524 25.5813 118.738 26.9467 119.164 28.184C119.634 29.4213 120.252 30.488 121.02 31.384C121.831 32.28 122.791 32.984 123.9 33.496C125.01 33.9653 126.204 34.2 127.484 34.2C128.764 34.2 129.938 33.9653 131.004 33.496C132.114 32.984 133.074 32.28 133.884 31.384C134.695 30.488 135.314 29.4213 135.74 28.184C136.21 26.9467 136.444 25.5813 136.444 24.088C136.444 22.6373 136.21 21.3147 135.74 20.12C135.314 18.8827 134.695 17.8587 133.884 17.048C133.074 16.1947 132.114 15.5333 131.004 15.064C129.938 14.5947 128.764 14.36 127.484 14.36C126.204 14.36 125.01 14.5947 123.9 15.064C122.791 15.5333 121.831 16.1947 121.02 17.048C120.252 17.8587 119.634 18.8827 119.164 20.12C118.738 21.3147 118.524 22.6373 118.524 24.088ZM170.613 1.688H186.805L204.469 47H187.893L185.525 40.344H171.125L168.885 47H152.757L170.613 1.688ZM178.485 17.496L174.773 28.696H182.133L178.485 17.496ZM207.693 47V1.688H224.589C228.173 1.688 231.586 2.05067 234.829 2.776C238.114 3.45867 240.994 4.67467 243.469 6.424C245.986 8.13066 247.991 10.4133 249.485 13.272C250.978 16.1307 251.725 19.736 251.725 24.088C251.725 28.056 250.999 31.4907 249.549 34.392C248.141 37.2933 246.242 39.6827 243.853 41.56C241.463 43.3947 238.711 44.76 235.597 45.656C232.482 46.552 229.239 47 225.869 47H207.693ZM222.349 14.616V33.944H225.165C228.749 33.944 231.501 33.176 233.421 31.64C235.341 30.0613 236.301 27.5013 236.301 23.96C236.301 21.016 235.341 18.7333 233.421 17.112C231.501 15.448 228.941 14.616 225.741 14.616H222.349ZM295.16 47H279.928V14.552H268.792V1.688H306.296V14.552H295.16V47ZM306.957 24.088C306.957 20.4613 307.597 17.1973 308.877 14.296C310.157 11.352 311.907 8.856 314.125 6.808C316.387 4.76 319.053 3.18133 322.125 2.072C325.197 0.962664 328.525 0.407997 332.109 0.407997C335.693 0.407997 339.021 0.962664 342.093 2.072C345.165 3.18133 347.832 4.76 350.093 6.808C352.355 8.856 354.125 11.352 355.405 14.296C356.685 17.1973 357.325 20.4613 357.325 24.088C357.325 27.7147 356.685 31.0213 355.405 34.008C354.125 36.9947 352.355 39.5547 350.093 41.688C347.832 43.7787 345.165 45.4 342.093 46.552C339.021 47.704 335.693 48.28 332.109 48.28C328.525 48.28 325.197 47.704 322.125 46.552C319.053 45.4 316.387 43.7787 314.125 41.688C311.907 39.5547 310.157 36.9947 308.877 34.008C307.597 31.0213 306.957 27.7147 306.957 24.088ZM323.149 24.088C323.149 25.5813 323.363 26.9467 323.789 28.184C324.259 29.4213 324.877 30.488 325.645 31.384C326.456 32.28 327.416 32.984 328.525 33.496C329.635 33.9653 330.829 34.2 332.109 34.2C333.389 34.2 334.563 33.9653 335.629 33.496C336.739 32.984 337.699 32.28 338.509 31.384C339.32 30.488 339.939 29.4213 340.365 28.184C340.835 26.9467 341.069 25.5813 341.069 24.088C341.069 22.6373 340.835 21.3147 340.365 20.12C339.939 18.8827 339.32 17.8587 338.509 17.048C337.699 16.1947 336.739 15.5333 335.629 15.064C334.563 14.5947 333.389 14.36 332.109 14.36C330.829 14.36 329.635 14.5947 328.525 15.064C327.416 15.5333 326.456 16.1947 325.645 17.048C324.877 17.8587 324.259 18.8827 323.789 20.12C323.363 21.3147 323.149 22.6373 323.149 24.088ZM19.072 122.28C17.2373 122.28 15.424 122.109 13.632 121.768C11.8827 121.469 10.176 121.021 8.512 120.424C6.89067 119.784 5.35467 119.059 3.904 118.248C2.45333 117.395 1.152 116.456 0 115.432L9.28 105.32C10.3467 106.472 11.7547 107.496 13.504 108.392C15.296 109.288 17.1307 109.736 19.008 109.736C19.8613 109.736 20.6293 109.587 21.312 109.288C22.0373 108.989 22.4 108.435 22.4 107.624C22.4 107.197 22.272 106.835 22.016 106.536C21.8027 106.237 21.3973 105.939 20.8 105.64C20.2027 105.299 19.3707 104.936 18.304 104.552C17.28 104.168 15.9787 103.72 14.4 103.208C12.864 102.696 11.392 102.099 9.984 101.416C8.576 100.691 7.31733 99.816 6.208 98.792C5.14133 97.768 4.288 96.552 3.648 95.144C3.008 93.6933 2.688 91.9653 2.688 89.96C2.688 87.144 3.264 84.7547 4.416 82.792C5.568 80.8293 7.04 79.2293 8.832 77.992C10.6667 76.712 12.7147 75.7947 14.976 75.24C17.2373 74.6853 19.4773 74.408 21.696 74.408C24.6827 74.408 27.712 74.984 30.784 76.136C33.8987 77.288 36.6293 78.952 38.976 81.128L29.504 90.792C28.48 89.512 27.2213 88.552 25.728 87.912C24.2347 87.2293 22.8907 86.888 21.696 86.888C20.5867 86.888 19.6907 87.0587 19.008 87.4C18.3253 87.6987 17.984 88.2107 17.984 88.936C17.984 89.6187 18.3253 90.1307 19.008 90.472C19.7333 90.8133 20.8853 91.24 22.464 91.752C24.0853 92.264 25.792 92.8613 27.584 93.544C29.376 94.2267 31.0187 95.1227 32.512 96.232C34.048 97.2987 35.3067 98.6213 36.288 100.2C37.2693 101.779 37.76 103.741 37.76 106.088C37.76 108.819 37.2053 111.208 36.096 113.256C35.0293 115.261 33.6 116.947 31.808 118.312C30.0587 119.635 28.0747 120.616 25.856 121.256C23.6373 121.939 21.376 122.28 19.072 122.28ZM65.566 121H50.334V88.552H39.198V75.688H76.702V88.552H65.566V121ZM90.1445 75.688H106.337L124.001 121H107.425L105.057 114.344H90.6565L88.4165 121H72.2885L90.1445 75.688ZM98.0165 91.496L94.3045 102.696H101.665L98.0165 91.496ZM127.224 75.688H146.744C148.963 75.688 151.16 75.9227 153.336 76.392C155.555 76.8187 157.517 77.608 159.224 78.76C160.973 79.8693 162.381 81.384 163.448 83.304C164.515 85.1813 165.048 87.5493 165.048 90.408C165.048 93.1813 164.365 95.6347 163 97.768C161.635 99.8587 159.672 101.48 157.112 102.632L168.632 121H151.096L142.392 104.808H141.944V121H127.224V75.688ZM141.816 94.824H144.824C145.336 94.824 145.891 94.7813 146.488 94.696C147.128 94.6107 147.704 94.44 148.216 94.184C148.771 93.8853 149.219 93.5013 149.56 93.032C149.944 92.52 150.136 91.8587 150.136 91.048C150.136 90.2373 149.987 89.5973 149.688 89.128C149.389 88.6587 149.005 88.3173 148.536 88.104C148.067 87.848 147.555 87.6987 147 87.656C146.445 87.5707 145.933 87.528 145.464 87.528H141.816V94.824ZM194.754 121H179.522V88.552H168.386V75.688H205.89V88.552H194.754V121ZM252.622 103.784H240.206V121H224.974V75.688H240.142V91.048H252.558V75.688H267.854V121H252.622V103.784ZM288.895 75.688H305.087L322.751 121H306.175L303.807 114.344H289.407L287.167 121H271.038L288.895 75.688ZM296.767 91.496L293.055 102.696H300.415L296.767 91.496ZM322.801 98.344C322.801 94.7173 323.441 91.432 324.721 88.488C326.001 85.544 327.75 83.0267 329.969 80.936C332.188 78.8453 334.79 77.2453 337.777 76.136C340.806 74.984 344.028 74.408 347.441 74.408C350.94 74.408 354.246 74.984 357.361 76.136C360.476 77.2453 363.078 78.76 365.169 80.68L355.825 91.944C354.972 90.8347 353.905 90.0027 352.625 89.448C351.345 88.8507 349.916 88.552 348.337 88.552C347.057 88.552 345.862 88.7867 344.753 89.256C343.644 89.6827 342.662 90.3227 341.809 91.176C340.998 92.0293 340.358 93.0747 339.889 94.312C339.42 95.5067 339.185 96.8507 339.185 98.344C339.185 99.8373 339.42 101.181 339.889 102.376C340.401 103.528 341.062 104.531 341.873 105.384C342.726 106.237 343.708 106.899 344.817 107.368C345.926 107.795 347.1 108.008 348.337 108.008C350.086 108.008 351.58 107.645 352.817 106.92C354.097 106.195 355.1 105.341 355.825 104.36L365.169 115.56C363.121 117.608 360.604 119.251 357.617 120.488C354.63 121.683 351.238 122.28 347.441 122.28C344.028 122.28 340.806 121.704 337.777 120.552C334.79 119.4 332.188 117.779 329.969 115.688C327.75 113.555 326.001 111.037 324.721 108.136C323.441 105.192 322.801 101.928 322.801 98.344ZM384.388 102.952H384.26V121H369.411V75.688H384.196V92.392H384.324L396.42 75.688H414.34L397.316 96.424L415.172 121H396.484L384.388 102.952Z" fill="#34E1B8"/>
</svg>
